<mxfile host="app.diagrams.net" agent="Mozilla/5.0 (Windows NT 10.0; Win64; x64) AppleWebKit/537.36 (KHTML, like Gecko) Chrome/132.0.0.0 Safari/537.36 OPR/117.0.0.0" version="26.2.9">
  <diagram name="Página-1" id="IhBa4vn85k0SDzuZFUnU">
    <mxGraphModel grid="1" page="1" gridSize="10" guides="1" tooltips="1" connect="1" arrows="1" fold="1" pageScale="2" pageWidth="827" pageHeight="1169" math="0" shadow="0">
      <root>
        <mxCell id="0" />
        <mxCell id="1" parent="0" />
        <mxCell id="RHn67E0pxUQU-vQDjA1L-1" value="Drone" style="shape=umlActor;verticalLabelPosition=bottom;verticalAlign=top;html=1;outlineConnect=0;" vertex="1" parent="1">
          <mxGeometry x="120" y="210" width="30" height="60" as="geometry" />
        </mxCell>
        <mxCell id="RHn67E0pxUQU-vQDjA1L-2" value="Sistema" style="shape=umlActor;verticalLabelPosition=bottom;verticalAlign=top;html=1;outlineConnect=0;" vertex="1" parent="1">
          <mxGeometry x="790" y="290" width="30" height="60" as="geometry" />
        </mxCell>
        <mxCell id="RHn67E0pxUQU-vQDjA1L-10" style="edgeStyle=orthogonalEdgeStyle;rounded=0;orthogonalLoop=1;jettySize=auto;html=1;exitX=1;exitY=0.5;exitDx=0;exitDy=0;entryX=0;entryY=0.5;entryDx=0;entryDy=0;dashed=1;" edge="1" parent="1" source="RHn67E0pxUQU-vQDjA1L-3" target="RHn67E0pxUQU-vQDjA1L-4">
          <mxGeometry relative="1" as="geometry" />
        </mxCell>
        <mxCell id="RHn67E0pxUQU-vQDjA1L-14" style="edgeStyle=orthogonalEdgeStyle;rounded=0;orthogonalLoop=1;jettySize=auto;html=1;exitX=0;exitY=0.5;exitDx=0;exitDy=0;" edge="1" parent="1" source="RHn67E0pxUQU-vQDjA1L-3">
          <mxGeometry relative="1" as="geometry">
            <mxPoint x="140" y="200" as="targetPoint" />
          </mxGeometry>
        </mxCell>
        <mxCell id="RHn67E0pxUQU-vQDjA1L-3" value="Iniciar missão" style="ellipse;whiteSpace=wrap;html=1;" vertex="1" parent="1">
          <mxGeometry x="200" y="90" width="166" height="70" as="geometry" />
        </mxCell>
        <mxCell id="RHn67E0pxUQU-vQDjA1L-11" style="edgeStyle=orthogonalEdgeStyle;rounded=0;orthogonalLoop=1;jettySize=auto;html=1;exitX=0.5;exitY=1;exitDx=0;exitDy=0;entryX=0.5;entryY=0;entryDx=0;entryDy=0;dashed=1;" edge="1" parent="1" source="RHn67E0pxUQU-vQDjA1L-4" target="RHn67E0pxUQU-vQDjA1L-6">
          <mxGeometry relative="1" as="geometry" />
        </mxCell>
        <mxCell id="RHn67E0pxUQU-vQDjA1L-17" style="edgeStyle=orthogonalEdgeStyle;rounded=0;orthogonalLoop=1;jettySize=auto;html=1;exitX=1;exitY=0.5;exitDx=0;exitDy=0;" edge="1" parent="1" source="RHn67E0pxUQU-vQDjA1L-4">
          <mxGeometry relative="1" as="geometry">
            <mxPoint x="800" y="280" as="targetPoint" />
          </mxGeometry>
        </mxCell>
        <mxCell id="RHn67E0pxUQU-vQDjA1L-4" value="Sensoriamento do Ambiente" style="ellipse;whiteSpace=wrap;html=1;" vertex="1" parent="1">
          <mxGeometry x="450" y="90" width="166" height="70" as="geometry" />
        </mxCell>
        <mxCell id="RHn67E0pxUQU-vQDjA1L-5" value="executar mudança&amp;nbsp;&lt;div&gt;de direção&lt;/div&gt;" style="ellipse;whiteSpace=wrap;html=1;" vertex="1" parent="1">
          <mxGeometry x="190" y="350" width="166" height="70" as="geometry" />
        </mxCell>
        <mxCell id="RHn67E0pxUQU-vQDjA1L-12" style="edgeStyle=orthogonalEdgeStyle;rounded=0;orthogonalLoop=1;jettySize=auto;html=1;exitX=0.5;exitY=1;exitDx=0;exitDy=0;entryX=0.5;entryY=0;entryDx=0;entryDy=0;dashed=1;" edge="1" parent="1" source="RHn67E0pxUQU-vQDjA1L-6" target="RHn67E0pxUQU-vQDjA1L-7">
          <mxGeometry relative="1" as="geometry" />
        </mxCell>
        <mxCell id="RHn67E0pxUQU-vQDjA1L-18" style="edgeStyle=orthogonalEdgeStyle;rounded=0;orthogonalLoop=1;jettySize=auto;html=1;exitX=1;exitY=0.5;exitDx=0;exitDy=0;" edge="1" parent="1" source="RHn67E0pxUQU-vQDjA1L-6">
          <mxGeometry relative="1" as="geometry">
            <mxPoint x="784" y="315" as="targetPoint" />
            <mxPoint x="630" y="290" as="sourcePoint" />
            <Array as="points">
              <mxPoint x="707" y="255" />
              <mxPoint x="707" y="315" />
            </Array>
          </mxGeometry>
        </mxCell>
        <mxCell id="RHn67E0pxUQU-vQDjA1L-6" value="Processar Dados Sensoriais" style="ellipse;whiteSpace=wrap;html=1;" vertex="1" parent="1">
          <mxGeometry x="450" y="220" width="166" height="70" as="geometry" />
        </mxCell>
        <mxCell id="RHn67E0pxUQU-vQDjA1L-13" style="edgeStyle=orthogonalEdgeStyle;rounded=0;orthogonalLoop=1;jettySize=auto;html=1;exitX=0.5;exitY=1;exitDx=0;exitDy=0;entryX=0.5;entryY=0;entryDx=0;entryDy=0;dashed=1;" edge="1" parent="1" source="RHn67E0pxUQU-vQDjA1L-7" target="RHn67E0pxUQU-vQDjA1L-9">
          <mxGeometry relative="1" as="geometry" />
        </mxCell>
        <mxCell id="RHn67E0pxUQU-vQDjA1L-19" style="edgeStyle=orthogonalEdgeStyle;rounded=0;orthogonalLoop=1;jettySize=auto;html=1;exitX=1;exitY=0.5;exitDx=0;exitDy=0;" edge="1" parent="1" source="RHn67E0pxUQU-vQDjA1L-7">
          <mxGeometry relative="1" as="geometry">
            <mxPoint x="780" y="350" as="targetPoint" />
            <Array as="points">
              <mxPoint x="700" y="385" />
              <mxPoint x="700" y="351" />
            </Array>
          </mxGeometry>
        </mxCell>
        <mxCell id="RHn67E0pxUQU-vQDjA1L-7" value="Detecção de Ameaças" style="ellipse;whiteSpace=wrap;html=1;" vertex="1" parent="1">
          <mxGeometry x="450" y="350" width="166" height="70" as="geometry" />
        </mxCell>
        <mxCell id="RHn67E0pxUQU-vQDjA1L-25" style="edgeStyle=orthogonalEdgeStyle;rounded=0;orthogonalLoop=1;jettySize=auto;html=1;exitX=0;exitY=0.5;exitDx=0;exitDy=0;" edge="1" parent="1" source="RHn67E0pxUQU-vQDjA1L-8">
          <mxGeometry relative="1" as="geometry">
            <mxPoint x="140" y="310" as="targetPoint" />
          </mxGeometry>
        </mxCell>
        <mxCell id="RHn67E0pxUQU-vQDjA1L-8" value="Seguir percurso" style="ellipse;whiteSpace=wrap;html=1;" vertex="1" parent="1">
          <mxGeometry x="190" y="470" width="166" height="70" as="geometry" />
        </mxCell>
        <mxCell id="RHn67E0pxUQU-vQDjA1L-20" style="edgeStyle=orthogonalEdgeStyle;rounded=0;orthogonalLoop=1;jettySize=auto;html=1;exitX=1;exitY=0.5;exitDx=0;exitDy=0;" edge="1" parent="1" source="RHn67E0pxUQU-vQDjA1L-9">
          <mxGeometry relative="1" as="geometry">
            <mxPoint x="800" y="380" as="targetPoint" />
          </mxGeometry>
        </mxCell>
        <mxCell id="RHn67E0pxUQU-vQDjA1L-9" value="Acionar redes neurais" style="ellipse;whiteSpace=wrap;html=1;" vertex="1" parent="1">
          <mxGeometry x="450" y="470" width="166" height="70" as="geometry" />
        </mxCell>
        <mxCell id="RHn67E0pxUQU-vQDjA1L-21" value="" style="endArrow=none;dashed=1;html=1;rounded=0;entryX=1;entryY=1;entryDx=0;entryDy=0;exitX=0;exitY=0;exitDx=0;exitDy=0;" edge="1" parent="1" source="RHn67E0pxUQU-vQDjA1L-9" target="RHn67E0pxUQU-vQDjA1L-5">
          <mxGeometry width="50" height="50" relative="1" as="geometry">
            <mxPoint x="400" y="480" as="sourcePoint" />
            <mxPoint x="450" y="430" as="targetPoint" />
          </mxGeometry>
        </mxCell>
        <mxCell id="RHn67E0pxUQU-vQDjA1L-22" value="" style="endArrow=none;dashed=1;html=1;rounded=0;entryX=0;entryY=0.5;entryDx=0;entryDy=0;exitX=1;exitY=0.5;exitDx=0;exitDy=0;" edge="1" parent="1" source="RHn67E0pxUQU-vQDjA1L-8" target="RHn67E0pxUQU-vQDjA1L-9">
          <mxGeometry width="50" height="50" relative="1" as="geometry">
            <mxPoint x="100" y="490" as="sourcePoint" />
            <mxPoint x="150" y="440" as="targetPoint" />
          </mxGeometry>
        </mxCell>
        <mxCell id="RHn67E0pxUQU-vQDjA1L-24" value="" style="endArrow=classic;html=1;rounded=0;exitX=0.5;exitY=0;exitDx=0;exitDy=0;" edge="1" parent="1" source="RHn67E0pxUQU-vQDjA1L-5">
          <mxGeometry width="50" height="50" relative="1" as="geometry">
            <mxPoint x="270" y="310" as="sourcePoint" />
            <mxPoint x="160" y="250" as="targetPoint" />
          </mxGeometry>
        </mxCell>
        <mxCell id="RHn67E0pxUQU-vQDjA1L-26" value="&amp;lt;include&amp;gt;" style="text;html=1;align=center;verticalAlign=middle;resizable=0;points=[];autosize=1;strokeColor=none;fillColor=none;" vertex="1" parent="1">
          <mxGeometry x="370" y="90" width="80" height="30" as="geometry" />
        </mxCell>
        <mxCell id="RHn67E0pxUQU-vQDjA1L-27" value="&amp;lt;extend&amp;gt;" style="text;html=1;align=center;verticalAlign=middle;resizable=0;points=[];autosize=1;strokeColor=none;fillColor=none;" vertex="1" parent="1">
          <mxGeometry x="366" y="400" width="70" height="30" as="geometry" />
        </mxCell>
        <mxCell id="RHn67E0pxUQU-vQDjA1L-28" value="&amp;lt;extend&amp;gt;" style="text;html=1;align=center;verticalAlign=middle;resizable=0;points=[];autosize=1;strokeColor=none;fillColor=none;" vertex="1" parent="1">
          <mxGeometry x="366" y="480" width="70" height="30" as="geometry" />
        </mxCell>
        <mxCell id="RHn67E0pxUQU-vQDjA1L-29" value="&amp;lt;include&amp;gt;" style="text;html=1;align=center;verticalAlign=middle;resizable=0;points=[];autosize=1;strokeColor=none;fillColor=none;" vertex="1" parent="1">
          <mxGeometry x="520" y="180" width="80" height="30" as="geometry" />
        </mxCell>
        <mxCell id="RHn67E0pxUQU-vQDjA1L-30" value="&amp;lt;include&amp;gt;" style="text;html=1;align=center;verticalAlign=middle;resizable=0;points=[];autosize=1;strokeColor=none;fillColor=none;" vertex="1" parent="1">
          <mxGeometry x="520" y="305" width="80" height="30" as="geometry" />
        </mxCell>
        <mxCell id="RHn67E0pxUQU-vQDjA1L-31" value="&amp;lt;include&amp;gt;" style="text;html=1;align=center;verticalAlign=middle;resizable=0;points=[];autosize=1;strokeColor=none;fillColor=none;" vertex="1" parent="1">
          <mxGeometry x="520" y="430" width="80" height="30" as="geometry" />
        </mxCell>
      </root>
    </mxGraphModel>
  </diagram>
</mxfile>
